<?xml version="1.0" standalone="no"?>
<!DOCTYPE svg PUBLIC "-//W3C//DTD SVG 20010904//EN"
 "http://www.w3.org/TR/2001/REC-SVG-20010904/DTD/svg10.dtd">
<svg version="1.0" xmlns="http://www.w3.org/2000/svg"
 width="500.000000pt" height="500.000000pt" viewBox="0 0 500.000000 500.000000"
 preserveAspectRatio="xMidYMid meet">

<g transform="translate(0.000000,500.000000) scale(0.100000,-0.100000)"
fill="#32325b" stroke="none">
<path d="M0 2500 l0 -2500 2500 0 2500 0 0 2500 0 2500 -2500 0 -2500 0 0
-2500z m1601 1870 c53 -15 79 -44 79 -89 0 -24 -7 -44 -19 -55 -18 -16 -18
-18 10 -46 20 -19 29 -39 29 -60 0 -79 -43 -100 -210 -100 l-120 0 0 173 c0
96 3 177 7 180 10 11 184 8 224 -3z m356 -2 c10 -13 153 -334 153 -343 0 -3
-20 -5 -44 -5 -42 0 -45 2 -56 35 l-12 35 -84 0 -84 0 -14 -35 c-14 -32 -19
-35 -55 -35 -23 0 -41 3 -41 8 0 4 34 85 77 180 l76 172 37 0 c21 0 42 -6 47
-12z m449 -4 c53 -25 61 -40 34 -69 l-22 -24 -37 20 c-19 10 -46 19 -59 19
-65 0 -120 -69 -107 -136 13 -73 118 -111 177 -64 l25 19 23 -24 c12 -13 20
-30 17 -38 -10 -27 -79 -52 -144 -52 -52 0 -68 5 -104 30 -23 17 -50 46 -60
65 -23 42 -25 129 -5 168 18 35 64 78 96 91 39 15 128 13 166 -5z m311 4 c10
-13 153 -334 153 -343 0 -3 -20 -5 -44 -5 -42 0 -45 2 -56 35 l-12 35 -84 0
-84 0 -14 -35 c-14 -32 -19 -35 -55 -35 -23 0 -41 3 -41 8 0 4 34 85 77 180
l76 172 37 0 c21 0 42 -6 47 -12z m398 1 c105 -29 138 -137 64 -211 l-29 -30
35 -49 c19 -27 35 -51 35 -54 0 -3 -20 -5 -43 -5 -41 0 -46 3 -78 50 -31 45
-38 50 -71 50 l-38 0 0 -50 0 -50 -40 0 -40 0 0 180 0 180 83 0 c45 0 100 -5
122 -11z m433 -10 c113 -55 135 -208 42 -292 -94 -86 -245 -66 -307 41 -35 59
-30 143 11 197 55 72 167 96 254 54z m-2450 -716 l3 -33 -95 0 -96 0 0 -45 0
-44 83 -3 82 -3 3 -32 3 -33 -85 0 -86 0 0 -65 0 -65 -40 0 -40 0 0 180 0 181
133 -3 132 -3 3 -32z m320 16 c113 -55 135 -208 42 -292 -94 -86 -245 -66
-307 41 -35 59 -30 143 11 197 55 72 167 96 254 54z m443 -8 c102 -70 115
-197 30 -282 -49 -49 -107 -65 -180 -51 -98 21 -151 84 -151 182 0 75 31 124
105 164 45 25 152 18 196 -13z m375 14 c82 -24 127 -85 126 -173 -1 -69 -33
-121 -94 -151 -37 -17 -63 -21 -151 -21 l-107 0 0 180 0 180 88 0 c49 0 111
-7 138 -15z m462 -22 l3 -33 -60 0 -61 0 0 -145 0 -145 -40 0 -39 0 -3 143 -3
142 -57 3 c-56 3 -58 4 -58 31 0 15 3 31 7 35 4 3 75 5 157 4 l151 -3 3 -32z
m247 26 c105 -29 138 -137 64 -211 l-29 -30 35 -49 c19 -27 35 -51 35 -54 0
-3 -20 -5 -43 -5 -41 0 -46 3 -78 50 -31 45 -38 50 -71 50 l-38 0 0 -50 0 -50
-40 0 -40 0 0 180 0 180 83 0 c45 0 100 -5 122 -11z m245 -105 c0 -149 12
-174 81 -174 60 0 68 18 71 160 l3 125 43 3 42 3 0 -123 c-1 -192 -35 -242
-167 -243 -47 0 -68 5 -90 21 -53 40 -66 77 -71 200 -3 62 -2 120 1 129 4 10
20 15 47 15 l40 0 0 -116z m576 100 c53 -25 61 -40 34 -69 l-22 -24 -37 20
c-19 10 -46 19 -59 19 -65 0 -120 -69 -107 -136 13 -73 118 -111 177 -64 l25
19 23 -24 c12 -13 20 -30 17 -38 -10 -27 -79 -52 -144 -52 -52 0 -68 5 -104
30 -23 17 -50 46 -60 65 -23 42 -25 129 -5 168 18 35 64 78 96 91 39 15 128
13 166 -5z m202 -68 l3 -78 75 81 c73 78 78 81 120 81 24 0 44 -3 44 -7 0 -4
-32 -40 -72 -80 -66 -66 -70 -73 -57 -92 8 -11 42 -56 77 -100 l63 -81 -50 0
c-49 0 -50 1 -101 65 -28 36 -54 65 -58 65 -3 0 -14 -7 -24 -17 -13 -11 -18
-30 -18 -65 l0 -48 -45 0 -45 0 0 181 0 180 43 -3 42 -3 3 -79z m-1234 -755
l109 -7 31 -37 c26 -31 37 -37 71 -37 39 0 173 -42 226 -71 15 -8 44 -24 65
-36 55 -30 200 -167 229 -217 13 -22 38 -84 56 -136 51 -155 66 -176 187 -266
97 -71 140 -159 167 -341 33 -223 11 -334 -65 -341 -47 -5 -54 -14 -56 -77 -3
-87 -61 -157 -163 -195 -91 -35 -239 4 -285 75 -22 34 -46 111 -46 150 l0 30
-187 -2 c-104 -1 -363 -8 -578 -14 -486 -15 -497 -16 -571 -7 l-60 7 -13 -72
c-25 -138 -96 -201 -230 -201 -93 1 -146 17 -189 58 -48 45 -74 91 -87 155
l-11 56 -66 7 c-78 7 -99 17 -129 59 l-22 32 0 556 c1 618 9 715 63 784 48 60
184 76 675 78 187 1 405 5 485 9 204 10 270 10 394 1z"/>
<path d="M1460 4270 l0 -40 54 0 c36 0 60 5 70 16 38 37 7 64 -73 64 l-51 0 0
-40z"/>
<path d="M1460 4125 l0 -45 49 0 c70 0 101 14 101 44 0 33 -26 46 -94 46 l-56
0 0 -45z"/>
<path d="M1896 4245 c-40 -92 -41 -85 14 -85 58 0 59 3 26 75 l-23 50 -17 -40z"/>
<path d="M2656 4245 c-40 -92 -41 -85 14 -85 58 0 59 3 26 75 l-23 50 -17 -40z"/>
<path d="M2998 4304 c-5 -4 -8 -31 -8 -61 l0 -53 54 0 c36 0 60 5 70 16 20 19
21 68 2 83 -17 14 -108 26 -118 15z"/>
<path d="M3402 4297 c-42 -24 -56 -58 -53 -125 1 -13 14 -37 30 -53 24 -24 38
-29 76 -29 38 0 52 5 76 29 63 64 23 177 -66 187 -23 2 -50 -1 -63 -9z"/>
<path d="M1272 3597 c-42 -24 -56 -58 -53 -125 1 -13 14 -37 30 -53 24 -24 38
-29 76 -29 38 0 52 5 76 29 63 64 23 177 -66 187 -23 2 -50 -1 -63 -9z"/>
<path d="M1694 3591 c-29 -18 -54 -64 -54 -98 0 -29 31 -80 56 -92 93 -42 179
23 160 122 -13 71 -100 108 -162 68z"/>
<path d="M2090 3501 l0 -111 59 0 c49 0 65 4 90 26 36 30 49 81 31 125 -18 42
-46 58 -118 65 l-62 7 0 -112z"/>
<path d="M2828 3604 c-5 -4 -8 -31 -8 -61 l0 -53 54 0 c36 0 60 5 70 16 20 19
21 68 2 83 -17 14 -108 26 -118 15z"/>
<path d="M2509 2796 c-4 -4 -224 -9 -490 -11 -266 -2 -537 -7 -602 -11 -108
-6 -121 -9 -157 -35 -56 -41 -76 -128 -73 -319 1 -63 3 -315 5 -560 3 -245 8
-453 12 -463 6 -12 20 -17 50 -17 22 0 51 -3 64 -6 17 -5 22 -2 22 13 0 31 76
111 132 139 29 15 75 27 113 31 122 11 205 -33 246 -131 20 -50 26 -55 58 -60
101 -15 167 -15 401 -2 140 8 273 12 295 9 22 -2 86 -2 141 2 l102 7 6 271
c14 629 7 1106 -18 1126 -13 11 -298 26 -307 17z m-74 -125 c66 -5 149 -8 185
-6 113 6 124 1 150 -62 22 -54 23 -56 5 -69 -11 -8 -24 -14 -31 -14 -13 0 -28
-86 -17 -103 8 -13 6 -498 -3 -549 -3 -21 -10 -41 -16 -44 -20 -13 -190 -17
-723 -17 -588 0 -643 3 -669 47 -10 16 -14 89 -15 296 -2 320 -6 352 -41 360
-15 4 -25 13 -25 24 0 27 58 114 80 120 11 3 144 11 295 17 151 6 276 12 277
13 6 6 437 -5 548 -13z"/>
<path d="M1552 2621 c-176 -5 -195 -8 -208 -25 -8 -11 -14 -23 -14 -27 0 -13
442 -21 740 -13 162 4 373 8 468 8 94 1 172 4 172 7 0 20 -40 27 -175 33 -82
3 -181 8 -220 10 -161 9 -583 13 -763 7z"/>
<path d="M2285 2508 c-82 -5 -209 -7 -281 -5 l-132 3 34 -34 c25 -25 32 -41
28 -57 -9 -36 42 -71 116 -79 56 -7 67 -12 111 -53 66 -62 79 -105 50 -166
-12 -25 -42 -64 -67 -86 -36 -34 -43 -46 -38 -66 6 -22 11 -25 55 -25 48 0 49
1 49 29 0 17 -4 33 -10 36 -5 3 -10 10 -10 16 0 12 47 12 55 -1 3 -5 31 -10
61 -10 39 0 59 5 72 18 18 18 62 36 62 25 0 -3 -9 -16 -20 -30 -11 -14 -20
-39 -20 -55 l0 -29 123 7 c67 4 124 8 126 10 2 1 6 129 8 284 l6 281 -114 -3
c-63 -1 -181 -6 -264 -10z"/>
<path d="M1366 2467 c-4 -23 -2 -114 4 -202 5 -88 10 -196 10 -239 l0 -79 81
6 c45 4 84 9 87 12 3 3 -2 21 -11 40 -9 20 -17 53 -17 75 0 33 8 47 55 98 53
58 82 76 199 127 l59 25 -42 45 c-22 24 -41 50 -41 56 0 6 15 26 33 43 l33 31
-222 2 -222 2 -6 -42z"/>
<path d="M1837 2420 c-18 -30 -16 -34 19 -29 4 0 11 -5 15 -13 6 -9 9 -6 9 10
0 13 -4 21 -8 18 -4 -2 -14 -1 -21 3 -9 6 -5 10 13 15 15 4 24 11 21 16 -11
18 -31 10 -48 -20z"/>
<path d="M1897 2326 c-15 -7 -24 -15 -21 -19 13 -13 33 -7 44 13 6 11 9 20 8
19 -2 0 -15 -6 -31 -13z"/>
<path d="M2118 2223 c-9 -11 -16 -35 -16 -61 1 -43 -30 -92 -57 -92 -6 0 -21
-7 -33 -16 -18 -12 -20 -19 -12 -29 18 -22 93 9 135 56 41 45 48 101 17 139
-17 21 -18 21 -34 3z"/>
<path d="M1636 2180 c-67 -63 -84 -105 -61 -149 21 -41 27 -39 19 4 -8 45 26
99 85 135 39 24 50 49 24 57 -7 3 -37 -19 -67 -47z"/>
<path d="M2030 2173 c0 -10 5 -25 10 -33 8 -12 10 -9 10 12 0 15 -4 30 -10 33
-5 3 -10 -2 -10 -12z"/>
<path d="M1735 2153 c-78 -41 -101 -79 -79 -133 14 -35 20 -41 38 -35 12 3 37
9 57 12 45 7 58 43 45 121 -10 56 -15 59 -61 35z"/>
<path d="M1848 2033 c7 -3 16 -2 19 1 4 3 -2 6 -13 5 -11 0 -14 -3 -6 -6z"/>
<path d="M1921 2011 c-21 -6 -43 -31 -27 -31 13 0 56 24 56 32 0 4 -1 8 -2 7
-2 -1 -14 -4 -27 -8z"/>
<path d="M2278 1983 c-10 -2 -18 -13 -18 -24 0 -18 6 -20 48 -17 40 3 47 6 50
26 3 19 -1 22 -30 21 -18 -1 -41 -3 -50 -6z"/>
<path d="M1615 1970 c3 -5 8 -10 11 -10 2 0 4 5 4 10 0 6 -5 10 -11 10 -5 0
-7 -4 -4 -10z"/>
<path d="M1738 1973 c-10 -2 -18 -9 -18 -15 0 -5 7 -7 16 -4 9 3 20 6 25 6 5
0 9 5 9 10 0 10 -3 11 -32 3z"/>
<path d="M1945 1966 c-18 -14 -15 -15 48 -16 51 0 68 3 65 13 -7 18 -89 21
-113 3z"/>
<path d="M1840 1960 c0 -5 5 -10 11 -10 5 0 7 5 4 10 -3 6 -8 10 -11 10 -2 0
-4 -4 -4 -10z"/>
<path d="M1380 1889 c0 -17 8 -19 73 -19 39 -1 328 -3 640 -5 l568 -5 -3 22
c-3 22 -6 22 -98 18 -114 -6 -398 -5 -847 3 -323 5 -333 5 -333 -14z"/>
<path d="M2894 2674 c4 -27 10 -92 13 -144 7 -95 7 -95 18 -50 l11 45 69 3
c89 5 228 -15 282 -40 42 -20 61 -43 128 -153 47 -79 37 -27 -12 63 -66 119
-281 271 -428 302 -27 6 -59 13 -69 17 -17 5 -18 1 -12 -43z"/>
<path d="M2984 2459 c11 -65 17 -168 17 -290 l1 -122 235 6 c130 4 238 9 241
11 2 3 -9 27 -25 53 -16 26 -49 86 -73 133 -23 47 -51 97 -61 112 -11 14 -19
30 -19 35 -1 16 -36 51 -69 68 -22 11 -69 18 -143 22 l-109 6 5 -34z"/>
<path d="M2919 2414 c-7 -72 -6 -1000 1 -1014 9 -16 26 -18 170 -19 l160 -2
12 28 c7 15 27 51 45 79 28 43 41 53 88 69 47 17 61 17 97 7 24 -7 64 -18 90
-26 54 -15 131 -74 153 -117 9 -16 24 -29 34 -29 41 0 52 111 27 279 -15 101
-16 103 -67 130 -44 24 -77 82 -85 153 -6 52 -10 59 -46 84 -21 15 -43 34 -49
43 -8 13 -9 12 -4 -5 3 -11 -1 -28 -8 -38 -12 -16 -40 -19 -248 -27 -129 -5
-259 -6 -289 -2 l-55 8 -7 199 c-4 109 -9 201 -12 204 -3 3 -6 1 -7 -4z m240
-499 c2 -3 -2 -11 -9 -20 -15 -18 -101 -21 -131 -4 -17 9 -18 13 -7 26 10 12
25 14 77 9 36 -4 67 -9 70 -11z"/>
<path d="M3710 1937 c0 -17 28 -73 43 -86 10 -7 17 -11 17 -7 0 9 -60 102 -60
93z"/>
<path d="M1567 1322 c-10 -10 -17 -25 -17 -32 0 -23 30 -48 51 -43 24 7 26 54
3 77 -19 20 -17 20 -37 -2z"/>
<path d="M3497 1333 c-13 -13 -7 -61 9 -67 28 -11 43 -7 54 15 9 16 8 25 -6
40 -17 19 -45 25 -57 12z"/>
</g>
</svg>
