<?xml version="1.0" standalone="no"?>
<!DOCTYPE svg PUBLIC "-//W3C//DTD SVG 20010904//EN" "http://www.w3.org/TR/2001/REC-SVG-20010904/DTD/svg10.dtd">
<svg version="1.0" xmlns="http://www.w3.org/2000/svg" width="500.000000pt" height="500.000000pt" viewBox="0 0 500.000000 500.000000" preserveAspectRatio="xMidYMid meet">
	<g transform="translate(0.000000,500.000000) scale(0.100000,-0.100000)" fill="#32325b" stroke="none">
		<path d="M0 2500 l0 -2500 2500 0 2500 0 0 2500 0 2500 -2500 0 -2500 0 0
-2500z m1568 1881 c58 -11 92 -44 92 -91 0 -19 -7 -46 -16 -58 -15 -22 -14
-24 10 -49 49 -48 28 -128 -41 -154 -13 -5 -80 -9 -149 -9 l-124 0 0 178 c0
98 3 182 7 185 9 10 169 8 221 -2z m448 -160 c98 -218 95 -201 41 -201 -43 0
-46 2 -61 40 l-16 40 -81 0 -80 0 -17 -40 c-16 -38 -19 -40 -59 -40 -24 0 -43
4 -43 8 0 8 144 334 156 354 3 5 24 8 46 6 l40 -3 74 -164z m394 147 c52 -27
59 -46 26 -70 -22 -16 -25 -16 -65 4 -37 18 -47 19 -81 9 -54 -16 -80 -52 -80
-112 0 -66 29 -99 92 -106 36 -4 55 -1 82 15 l34 20 24 -25 23 -25 -28 -23
c-85 -74 -236 -46 -294 53 -22 36 -25 52 -21 106 3 51 10 71 32 101 56 73 169
96 256 53z m386 -147 c98 -218 95 -201 41 -201 -43 0 -46 2 -61 40 l-16 40
-81 0 -80 0 -17 -40 c-16 -38 -19 -40 -59 -40 -24 0 -43 4 -43 8 0 8 144 334
156 354 3 5 24 8 46 6 l40 -3 74 -164z m375 143 c75 -43 88 -138 29 -199 l-32
-33 29 -44 c49 -71 49 -68 0 -68 -43 0 -47 3 -81 50 -31 44 -40 50 -71 50
l-35 0 0 -50 0 -50 -45 0 -45 0 0 186 0 187 108 -5 c84 -3 117 -9 143 -24z
m421 -3 c159 -109 82 -351 -112 -351 -78 0 -169 60 -191 127 -28 87 13 192 93
232 59 30 159 26 210 -8z m-2014 -733 l3 -38 -60 0 -61 0 0 -145 0 -145 -45 0
-45 0 0 145 0 145 -55 0 -55 0 0 40 0 41 158 -3 157 -3 3 -37z m320 5 l-3 -38
-92 -3 -93 -3 0 -34 0 -35 85 0 85 0 0 -35 0 -35 -85 0 -85 0 0 -40 0 -40 100
0 100 0 0 -35 0 -35 -145 0 -145 0 0 178 c0 98 3 182 7 185 3 4 67 7 140 7
l134 0 -3 -37z m342 15 c52 -27 59 -46 26 -70 -22 -16 -25 -16 -65 4 -37 18
-47 19 -81 9 -54 -16 -80 -52 -80 -112 0 -66 29 -99 92 -106 36 -4 55 -1 82
15 l34 20 24 -25 23 -25 -28 -23 c-85 -74 -236 -46 -294 53 -22 36 -25 52 -21
106 3 51 10 71 32 101 56 73 169 96 256 53z m198 -55 l3 -73 79 0 79 0 3 73 3
72 40 0 40 0 3 -182 2 -183 -45 0 -45 0 0 75 0 75 -80 0 -80 0 0 -75 0 -75
-45 0 -45 0 0 178 c0 98 3 182 7 186 4 4 23 6 43 4 l35 -3 3 -72z m752 55 c52
-27 59 -46 26 -70 -22 -16 -25 -16 -65 4 -37 18 -47 19 -81 9 -54 -16 -80 -52
-80 -112 0 -66 29 -99 92 -106 36 -4 55 -1 82 15 l34 20 24 -25 23 -25 -28
-23 c-85 -74 -236 -46 -294 53 -22 36 -25 52 -21 106 3 51 10 71 32 101 56 73
169 96 256 53z m198 -130 l3 -148 89 0 90 0 0 -35 0 -35 -135 0 -135 0 0 186
0 185 43 -3 42 -3 3 -147z m312 -33 l0 -185 -45 0 -45 0 0 178 c0 98 3 182 7
185 3 4 24 7 45 7 l38 0 0 -185z m-1040 -490 c95 -23 149 -45 161 -68 19 -34
-7 -44 -136 -54 -145 -11 -188 -29 -279 -114 -97 -90 -135 -189 -121 -318 l7
-66 114 -115 113 -115 106 105 105 105 -6 85 c-14 199 74 374 250 493 129 87
421 108 450 32 15 -40 2 -61 -111 -177 l-118 -120 0 -66 c0 -55 5 -75 27 -113
44 -74 143 -149 199 -149 14 0 63 41 143 119 l122 119 59 -3 c33 -2 63 -4 67
-4 4 -1 16 -11 28 -23 16 -18 20 -35 20 -94 0 -133 -61 -267 -166 -365 -107
-99 -211 -138 -380 -143 l-115 -3 -120 -119 -119 -119 424 -425 c233 -234 431
-439 440 -456 53 -106 13 -229 -89 -275 -53 -25 -211 -26 -258 -3 -18 9 -215
199 -439 422 l-408 407 -202 -201 c-483 -478 -601 -590 -640 -610 -59 -31
-199 -41 -272 -20 -153 45 -240 206 -191 357 16 51 45 81 443 482 l427 427
-135 135 c-87 87 -142 135 -156 135 -21 0 -114 -56 -114 -68 0 -4 7 -16 15
-26 8 -11 15 -37 15 -58 0 -33 -8 -47 -63 -105 l-64 -66 -72 -4 c-49 -2 -81 2
-99 11 -45 24 -340 328 -347 359 -4 15 -2 40 5 57 15 36 122 140 147 141 10 1
41 2 70 3 l51 1 274 270 c150 149 300 288 332 309 61 41 124 68 210 91 72 19
313 19 396 0z" />
		<path d="M1430 4280 l0 -41 68 3 c63 3 67 5 70 27 5 35 -22 51 -85 51 l-53 0
0 -40z" />
		<path d="M1430 4130 l0 -41 78 3 c72 3 77 5 80 26 6 40 -14 52 -89 52 l-69 0
0 -40z" />
		<path d="M1873 4235 c-13 -31 -23 -60 -23 -65 0 -6 23 -10 51 -10 48 0 50 1
43 23 -9 30 -43 107 -46 107 -2 0 -13 -25 -25 -55z" />
		<path d="M2653 4235 c-13 -31 -23 -60 -23 -65 0 -6 23 -10 51 -10 48 0 50 1
43 23 -9 30 -43 107 -46 107 -2 0 -13 -25 -25 -55z" />
		<path d="M3010 4250 l0 -60 50 0 c57 0 90 24 90 63 0 38 -30 57 -88 57 l-52 0
0 -60z" />
		<path d="M3434 4306 c-42 -19 -64 -52 -64 -99 0 -92 80 -144 163 -106 78 36
73 171 -8 205 -42 17 -51 17 -91 0z" />
		<path d="M1590 875 c-19 -20 -25 -38 -25 -70 0 -50 36 -98 69 -93 24 4 66 62
66 93 0 31 -42 89 -66 93 -11 2 -30 -8 -44 -23z" />
	</g>
</svg>
