<svg height="500pt" preserveAspectRatio="xMidYMid meet" viewBox="0 0 500 500" width="500pt" xmlns="http://www.w3.org/2000/svg">
	<g transform="matrix(.1 0 0 -.1 0 500)" fill="#32325b" stroke="none">
		<path d="m0 2500v-2500h2500 2500v2500 2500h-2500-2500zm1627 1765c37-63 70-114 73-114s36 51 73 115c66 111 70 115 100 112l32-3 3-187 2-188h-39-40l-3 107-3 107-50-84c-70-118-84-118-150-4l-50 85-3-105-3-106h-39-40v190 190h35c33 0 36-4 102-115zm671 82c54-35 86-96 85-162-1-169-210-256-339-143-107 94-88 253 38 317 62 32 159 26 216-12zm310-78 91-111 3 109 3 108 43 3 42 3v-190-191l-37 1c-36 0-43 6-123 105l-85 106-3-106-3-106h-44-45v190 190h34c31 0 41-9 124-111zm552 71v-40h-95-95v-40-40h85 85v-35-35h-85-85v-40-40h100 100v-35-35h-145-145v190 190h140 140zm165-40c26-44 50-80 54-80 3 0 28 36 54 80 47 79 49 80 89 80 49 0 50 4-37-140-63-104-65-110-65-174v-66h-45-45v66c0 64-2 70-65 174-88 146-87 140-32 140h45zm-2369-688c73-37 104-88 104-168 0-60-31-118-82-151-39-26-49-28-170-31l-128-4v185c0 101 3 187 8 192 4 4 57 5 118 2 84-4 121-10 150-25zm372 16c10-14 162-351 162-362 0-3-20-6-45-6-43 0-46 2-61 40l-16 40h-85-85l-15-40c-15-38-18-40-60-40-23 0-43 4-43 8 0 12 150 344 162 359 13 17 72 17 86 1zm432-2c37-14 38-16 26-59-6-21-13-26-25-21-75 33-161 24-161-16 0-22 16-31 101-54 68-19 105-47 114-86s-17-91-56-114c-44-26-133-30-194-9-46 16-50 21-48 47 3 42 16 50 51 32 39-20 135-21 151-2 19 22 2 45-43 56-129 33-172 67-163 133 9 70 64 106 157 106 30 0 71-6 90-13zm200-61v-75h85 85v76 75l43-3 42-3 3-187 2-188h-45-45v75 75h-85-85v-75-75h-45-45v183c0 101 3 187 7 190 3 4 24 7 45 7h38zm613 54c30-13 57-55 57-86 0-10-9-33-20-50-19-31-19-33-1-42 51-28 49-116-2-155-25-19-45-21-168-24l-139-4v185c0 101 3 187 8 192 11 12 233-1 265-16zm412 2c140-63 152-259 21-336-86-50-186-42-256 21-47 43-64 89-58 159s39 118 102 150c61 30 133 33 191 6zm462-166c45-99 82-183 82-187 1-5-20-8-45-8-44 0-46 1-61 40l-16 40h-87-87l-13-40c-13-39-14-40-62-40-27 0-47 3-45 8 5 7 107 236 148 330 18 42 20 43 61 40l42-3zm376 160c42-20 63-48 72-97 8-44-14-100-49-123l-26-17 33-47c54-73 54-71 0-71-47 0-49 2-81 50-30 46-35 50-72 50h-40v-50-50h-45-45v183c0 101 3 187 8 191 13 15 207 0 245-19zm413-3c73-37 104-88 104-168 0-60-31-118-82-151-39-26-49-28-170-31l-128-4v185c0 101 3 187 8 192 4 4 57 5 118 2 84-4 121-10 150-25zm-321-671c52-23 102-81 112-128 4-21 8-513 8-1093 0-849-3-1062-13-1092-17-47-80-102-135-117-31-9-401-11-1419-9l-1376 3-44 30c-25 18-52 49-65 75l-23 44v1079c0 1040 1 1079 19 1115 24 46 56 76 101 96 31 13 205 15 1415 15 1314 1 1382 0 1420-18z" />
		<path d="m2099 4271c-49-50-38-150 21-184 55-33 135-12 159 40 6 13 11 44 11 69 0 37-6 51-29 75-25 25-37 29-81 29s-56-4-81-29z" />
		<path d="m770 3446v-116h50c102 0 158 50 147 133-9 65-43 91-127 95l-70 4z" />
		<path d="m1261 3488c-13-29-25-59-28-65-4-10 10-13 50-13h56l-26 63c-14 34-26 63-28 65-1 1-12-21-24-50z" />
		<path d="m2390 3526v-46h48c65 0 90 9 98 32 10 32-19 51-86 56l-60 4z" />
		<path d="m2390 3376v-46h75c71 0 76 1 87 25 18 40-6 57-91 63l-71 5z" />
		<path d="m2831 3546c-33-18-50-53-51-104 0-37 6-50 34-78 40-40 92-46 142-15 63 39 67 143 7 190-30 24-95 28-132 7z" />
		<path d="m3298 3487c-34-83-36-77 21-77 28 0 51 4 51 9 0 15-42 111-49 111-3 0-14-19-23-43z" />
		<path d="m3660 3494v-67l58 7c66 8 85 23 85 67 0 43-25 59-90 59h-53z" />
		<path d="m4050 3446v-116h50c102 0 158 50 147 133-9 65-43 91-127 95l-70 4z" />
		<path d="m1416 2698c-9-12-16-35-16-50 0-27 30-68 50-68s50 41 50 68c0 35-26 72-50 72-10 0-26-10-34-22z" />
		<path d="m1756 2698c-22-31-20-60 5-92 25-31 33-32 59-6 36 36 15 120-30 120-10 0-26-10-34-22z" />
		<path d="m2114 2712c-15-9-34-47-34-66 0-8 11-27 24-42 23-27 24-28 50-11 21 14 26 25 26 56 0 51-35 84-66 63z" />
		<path d="m1192 1523 3-828 1303-3 1302-2v830 830h-1305-1305zm787 466c183-32 333-181 363-361 18-105 36-98-252-98h-250v228c0 126 3 232 7 235 9 10 58 8 132-4zm1250-3c8-5 11-130 11-426v-418l-62-7c-35-3-103-5-153-3l-90 3-3 427-2 427 37 4c53 7 248 1 262-7zm-1431-323 2-213 213-2 212-3 3-38c4-42-20-132-50-190-25-50-90-121-145-159-126-86-341-102-487-35-63 29-158 115-193 174-83 142-83 324 0 466 74 126 242 219 387 214l55-2zm1790 174c9-6 12-87 12-348 0-314-1-340-17-347-10-4-79-7-153-7h-135l-3 349c-2 273 1 352 10 358 16 11 268 6 286-5zm-745-253 37-7v-218-218l-52-6c-29-3-98-5-153-3l-100 3-3 215c-1 118 0 220 2 227 6 14 196 19 269 7zm865-547 3-67-628 2-628 3-3 54c-2 29-1 60 2 67 5 12 107 14 628 12l623-3z" />
	</g>
</svg>
