<?xml version="1.0" standalone="no"?>
<!DOCTYPE svg PUBLIC "-//W3C//DTD SVG 20010904//EN" "http://www.w3.org/TR/2001/REC-SVG-20010904/DTD/svg10.dtd">
<svg version="1.0" xmlns="http://www.w3.org/2000/svg" width="500.000000pt" height="500.000000pt" viewBox="0 0 500.000000 500.000000" preserveAspectRatio="xMidYMid meet">
	<g transform="translate(0.000000,500.000000) scale(0.100000,-0.100000)" fill="#32325b" stroke="none">
		<path d="M0 2500 l0 -2500 2500 0 2500 0 0 2500 0 2500 -2500 0 -2500 0 0
-2500z m1746 1842 c77 -40 114 -102 114 -192 0 -118 -74 -200 -194 -216 -136
-19 -266 87 -266 216 0 85 76 186 156 208 55 15 143 8 190 -16z m-476 -4 c60
-31 82 -65 83 -125 2 -99 -59 -150 -189 -160 l-74 -6 0 -53 0 -54 -50 0 -50 0
0 210 0 210 118 0 c102 0 123 -3 162 -22z m760 -75 l1 -98 92 98 92 98 55 -3
55 -3 -84 -87 c-48 -51 -81 -93 -78 -101 3 -7 41 -59 86 -115 45 -56 81 -104
81 -107 0 -3 -24 -5 -54 -5 l-54 0 -67 81 -68 80 -28 -27 c-25 -24 -29 -35
-29 -81 l0 -53 -50 0 -50 0 0 210 0 210 50 0 50 0 0 -97z m670 57 l0 -40 -110
0 -110 0 0 -45 0 -45 95 0 95 0 0 -40 0 -40 -95 0 -95 0 0 -45 0 -45 115 0
115 0 0 -40 0 -40 -165 0 -165 0 0 210 0 210 160 0 160 0 0 -40z m364 28 c61
-18 120 -83 136 -146 18 -76 0 -143 -54 -196 -54 -54 -98 -66 -245 -66 l-121
0 0 210 0 210 121 0 c67 0 140 -6 163 -12z m536 -28 l0 -40 -110 0 -110 0 0
-45 0 -45 95 0 95 0 0 -40 0 -40 -95 0 -95 0 0 -45 0 -45 110 0 110 0 0 -40 0
-40 -160 0 -160 0 0 210 0 210 160 0 160 0 0 -40z m199 -25 c24 -36 45 -65 47
-65 1 0 23 29 49 65 46 65 46 65 96 65 27 0 49 -3 49 -7 -1 -5 -32 -50 -70
-102 l-68 -93 74 -103 c41 -57 74 -106 74 -109 0 -3 -24 -6 -54 -6 l-54 0 -48
70 c-26 39 -49 70 -51 70 -1 0 -24 -31 -49 -70 l-47 -70 -58 0 -59 0 75 103
c41 57 75 107 75 111 0 6 -90 137 -133 194 -7 9 4 12 49 12 l59 0 44 -65z
m-184 -768 c13 -19 15 -215 15 -1493 0 -1387 -1 -1473 -17 -1492 -10 -12 -31
-24 -48 -28 l-30 -7 20 23 c20 22 20 38 23 1499 1 876 -2 1487 -7 1502 -8 24
-7 26 10 22 11 -3 26 -15 34 -26z m-91 -3 c3 -9 6 -679 6 -1489 0 -1447 0
-1474 -19 -1485 -27 -14 -2095 -14 -2122 0 -19 11 -19 38 -19 1494 0 815 3
1486 7 1489 3 4 487 7 1074 7 964 0 1067 -2 1073 -16z" />
		<path d="M1559 4257 c-103 -69 -51 -237 73 -237 79 0 128 50 128 130 0 23 -7
54 -15 70 -31 61 -124 79 -186 37z" />
		<path d="M1090 4210 l0 -70 58 0 c72 0 102 18 102 63 0 56 -31 77 -109 77
l-51 0 0 -70z" />
		<path d="M2880 4150 l0 -130 55 0 c110 0 165 43 165 130 0 87 -55 130 -165
130 l-55 0 0 -130z" />
		<path d="M1514 3453 c-12 -2 -34 -18 -50 -34 l-29 -30 0 -719 0 -720 33 -32
32 -33 923 -3 c678 -2 929 1 950 9 15 7 37 23 47 37 19 24 20 44 20 736 0 687
-1 712 -20 743 -13 21 -31 35 -57 42 -36 10 -1799 14 -1849 4z m1854 -59 l22
-15 0 -706 c0 -643 -1 -708 -17 -725 -15 -17 -57 -18 -935 -18 -905 0 -918 0
-938 20 -20 20 -20 33 -20 720 0 687 0 700 20 720 20 20 33 20 933 20 810 0
915 -2 935 -16z" />
		<path d="M1574 3336 l-34 -34 0 -623 c0 -601 1 -625 20 -656 12 -21 32 -36 57
-43 27 -8 277 -10 840 -8 l803 3 32 33 33 32 3 618 c2 450 -1 624 -9 645 -6
15 -23 37 -37 47 -24 20 -45 20 -849 20 l-825 0 -34 -34z m1685 -30 c21 -19
21 -22 21 -637 l0 -618 -22 -15 c-20 -14 -115 -16 -829 -16 l-806 0 -19 21
c-18 20 -19 47 -22 620 -3 649 -2 652 50 662 13 2 379 4 814 3 764 -1 793 -2
813 -20z" />
		<path d="M1689 1741 c-26 -26 -29 -36 -29 -90 l0 -61 -63 0 c-53 0 -67 -4 -85
-23 -19 -20 -22 -35 -22 -110 0 -113 12 -127 104 -127 l64 0 4 -71 c5 -97 20
-109 133 -109 113 0 128 12 133 109 l4 71 64 0 c50 0 68 4 83 19 41 41 40 174
0 218 -19 19 -32 23 -86 23 l-63 0 0 61 c0 54 -3 64 -29 90 -27 27 -35 29
-106 29 -71 0 -79 -2 -106 -29z m189 -108 l3 -83 70 0 c101 0 109 -6 109 -88
0 -40 -5 -73 -12 -80 -7 -7 -43 -12 -90 -12 l-78 0 0 -80 c0 -92 -7 -100 -85
-100 -78 0 -85 8 -85 100 l0 80 -78 0 c-47 0 -83 5 -90 12 -7 7 -12 40 -12 80
0 82 8 88 109 88 l71 0 0 78 c0 43 3 82 7 86 4 4 41 5 83 4 l75 -3 3 -82z" />
		<path d="M3191 1608 c-53 -36 -74 -71 -78 -130 -11 -148 140 -239 253 -153 43
33 64 78 64 140 0 53 -16 88 -59 129 -25 24 -42 30 -88 34 -48 3 -64 0 -92
-20z m147 -44 c25 -17 52 -70 52 -105 0 -35 -31 -89 -61 -104 -44 -23 -93 -19
-128 11 -67 56 -56 169 21 208 37 18 78 15 116 -10z" />
		<path d="M2910 1403 c-24 -9 -70 -55 -87 -87 -32 -62 -15 -153 39 -203 51 -48
113 -55 178 -20 51 27 90 90 90 146 0 50 -38 121 -79 148 -33 22 -102 30 -141
16z m106 -49 c43 -21 64 -59 64 -120 0 -39 -5 -51 -34 -80 -38 -38 -86 -45
-135 -19 -32 16 -61 69 -61 112 0 40 35 92 73 108 42 18 52 18 93 -1z" />
		<path d="M2132 1043 c-29 -11 -42 -62 -42 -163 0 -99 1 -102 29 -131 27 -27
35 -29 105 -29 65 0 79 3 103 24 28 24 28 26 28 139 0 108 -1 117 -24 141 -23
24 -31 26 -105 25 -45 0 -87 -3 -94 -6z m159 -43 c17 -10 19 -22 19 -110 0
-91 -2 -100 -22 -114 -25 -18 -84 -21 -122 -6 -26 9 -26 11 -26 113 0 67 4
107 12 115 15 15 112 16 139 2z" />
		<path d="M2512 1027 c-20 -21 -22 -34 -22 -141 0 -111 1 -118 25 -141 22 -23
32 -25 108 -25 75 0 87 3 111 25 25 23 26 27 26 140 0 110 -1 117 -25 140 -22
23 -32 25 -113 25 -80 0 -91 -2 -110 -23z m190 -34 c15 -13 18 -32 18 -105 0
-75 -3 -91 -20 -108 -25 -25 -114 -28 -148 -4 -20 14 -22 23 -22 109 0 116 7
125 92 125 43 0 67 -5 80 -17z" />
	</g>
</svg>
