<?xml version="1.0" standalone="no"?>
<!DOCTYPE svg PUBLIC "-//W3C//DTD SVG 20010904//EN" "http://www.w3.org/TR/2001/REC-SVG-20010904/DTD/svg10.dtd">
<svg version="1.0" xmlns="http://www.w3.org/2000/svg" width="500.000000pt" height="500.000000pt" viewBox="0 0 500.000000 500.000000" preserveAspectRatio="xMidYMid meet">
	<g transform="translate(0.000000,500.000000) scale(0.100000,-0.100000)" fill="#32325b" stroke="none">
		<path d="M0 2500 l0 -2500 2500 0 2500 0 0 2500 0 2500 -2500 0 -2500 0 0
-2500z m1307 1856 c39 -20 63 -62 63 -111 0 -82 -54 -125 -159 -125 l-61 0 0
-50 0 -50 -45 0 -45 0 0 173 c0 96 3 177 8 181 13 15 205 0 239 -18z m370 0
c68 -35 85 -131 33 -189 -16 -19 -30 -37 -30 -41 0 -3 16 -28 36 -56 l36 -50
-46 0 c-44 0 -48 2 -82 50 -31 43 -41 50 -70 50 l-34 0 0 -50 0 -50 -45 0 -45
0 0 173 c0 96 3 177 8 181 13 15 205 0 239 -18z m386 8 c74 -38 107 -88 107
-164 0 -98 -53 -161 -151 -182 -73 -14 -131 2 -180 51 -90 89 -68 235 43 290
52 26 135 28 181 5z m430 3 c18 -8 38 -21 46 -31 12 -14 11 -20 -9 -41 l-22
-24 -40 21 c-82 43 -168 -7 -168 -98 0 -37 5 -51 30 -75 26 -27 35 -30 82 -27
l53 3 3 53 3 52 40 0 39 0 0 -73 0 -73 -34 -16 c-176 -84 -361 62 -291 229 9
21 23 46 33 57 45 50 165 72 235 43z m405 -24 l3 -33 -95 0 -96 0 0 -40 0 -40
85 0 85 0 0 -30 0 -30 -85 0 -85 0 0 -40 0 -40 95 0 95 0 0 -35 0 -35 -135 0
-135 0 0 180 0 181 133 -3 132 -3 3 -32z m652 2 l0 -35 -55 0 -55 0 0 -145 0
-145 -45 0 -45 0 0 145 0 145 -115 0 -115 0 0 -145 0 -145 -40 0 -39 0 -3 143
-3 142 -57 3 c-56 3 -58 4 -58 31 0 15 3 31 7 34 3 4 145 7 315 7 l308 0 0
-35z m308 14 c113 -55 135 -208 42 -292 -94 -86 -245 -66 -307 41 -35 59 -30
143 11 197 55 72 167 96 254 54z m-2370 -826 l3 -143 84 0 84 0 3 -27 c2 -22
20 11 79 142 l76 170 42 0 42 0 65 -145 c36 -80 72 -160 79 -177 l14 -33 -44
0 c-42 0 -46 2 -59 35 l-15 35 -83 0 -84 0 -13 -35 -12 -35 -175 0 -174 0 0
181 0 180 43 -3 42 -3 3 -142z m865 134 c18 -8 38 -21 46 -31 12 -14 11 -20
-9 -41 l-22 -24 -40 21 c-82 43 -168 -7 -168 -98 0 -37 5 -51 30 -75 26 -27
35 -30 82 -27 l53 3 3 53 3 52 40 0 39 0 0 -73 0 -73 -34 -16 c-176 -84 -361
62 -291 229 9 21 23 46 33 57 45 50 165 72 235 43z m217 -118 c6 -146 12 -159
75 -159 63 0 69 13 75 159 l5 126 40 0 40 0 0 -132 c0 -117 -2 -135 -21 -159
-40 -54 -70 -69 -139 -69 -69 0 -99 15 -139 69 -18 23 -22 45 -25 147 -2 65 0
126 3 135 4 11 17 14 43 12 l38 -3 5 -126z m467 25 l88 -107 3 107 3 106 39 0
40 0 0 -180 0 -180 -34 0 c-32 0 -42 9 -118 100 l-83 101 -3 -101 -3 -100 -44
0 -45 0 0 173 c0 96 3 177 7 180 3 4 19 7 35 7 23 0 42 -17 115 -106z m530
-74 l81 -180 -44 0 c-41 0 -46 3 -61 35 l-17 35 -82 0 -83 0 -12 -35 c-12 -33
-16 -35 -56 -35 -24 0 -43 2 -43 5 0 6 127 289 146 328 12 22 21 27 52 27 l38
0 81 -180z m-854 -541 c32 -14 62 -65 72 -122 8 -42 16 -49 70 -65 66 -20 138
-65 163 -102 44 -66 11 -134 -88 -180 -38 -18 -50 -29 -50 -45 0 -12 -10 -37
-23 -56 -18 -27 -34 -37 -79 -48 -50 -13 -58 -19 -63 -43 -4 -16 -18 -42 -32
-58 -21 -25 -24 -36 -18 -68 6 -37 8 -39 64 -50 133 -28 231 -147 231 -281 0
-84 -79 -188 -162 -213 l-38 -11 0 -159 0 -159 238 3 c222 3 240 4 283 26 72
35 123 86 163 161 41 78 70 106 126 121 54 15 134 -4 160 -37 44 -56 31 -149
-24 -174 -20 -9 -26 -22 -31 -63 -24 -185 -106 -349 -238 -474 l-56 -52 35
-35 c19 -19 44 -35 55 -35 11 0 50 29 88 64 75 70 94 83 131 86 63 5 70 2 70
-34 0 -28 -5 -36 -29 -45 -16 -7 -52 -37 -81 -67 -60 -63 -87 -78 -148 -88
-77 -12 -125 9 -201 85 -47 47 -76 69 -93 69 -16 0 -46 -22 -93 -69 -61 -59
-77 -70 -124 -80 -97 -21 -151 0 -238 93 -71 76 -86 75 -172 -13 -58 -59 -74
-70 -120 -80 -64 -14 -66 -14 -116 0 -26 7 -61 32 -105 74 -36 35 -78 68 -93
74 -25 10 -28 15 -25 48 3 34 6 38 28 35 82 -9 94 -15 166 -83 41 -39 82 -69
93 -69 12 0 21 1 21 3 0 2 -11 36 -25 75 -40 115 -31 186 33 254 l25 27 -24
55 -24 56 -290 0 c-159 0 -319 5 -355 11 -135 21 -252 103 -314 220 -46 87
-76 110 -90 73 -11 -29 3 -52 38 -58 l33 -6 6 -83 c15 -212 126 -401 305 -518
110 -72 188 -97 365 -115 52 -5 64 -11 118 -59 142 -127 227 -127 357 0 40 40
75 68 78 64 2 -5 11 -6 18 -3 7 3 33 -19 59 -50 117 -136 256 -140 382 -11 76
79 92 79 160 6 109 -117 231 -131 342 -37 19 16 34 22 38 16 3 -6 10 -8 15 -5
5 3 24 -4 41 -17 l31 -23 -38 -32 c-74 -64 -116 -78 -244 -78 -124 0 -157 10
-229 70 l-31 27 -50 -37 c-65 -47 -124 -65 -220 -65 -97 0 -165 20 -217 65
-23 19 -44 35 -48 35 -3 0 -23 -14 -44 -30 -60 -49 -129 -70 -224 -70 -99 0
-151 21 -244 98 -60 50 -65 52 -147 61 -148 17 -244 52 -361 131 -173 117
-304 330 -322 526 -5 52 -10 67 -27 76 -39 20 -56 50 -56 105 0 44 4 56 30 81
36 36 82 46 146 32 60 -14 88 -38 126 -114 35 -69 100 -135 165 -168 46 -22
60 -23 286 -26 l238 -3 -3 153 -3 153 -25 3 c-93 12 -142 47 -161 114 -12 48
-1 90 37 129 l25 27 -70 157 c-39 86 -71 159 -71 161 0 9 58 32 82 32 23 0 30
-10 61 -78 l35 -78 47 23 c25 13 66 27 90 31 41 6 45 9 51 42 4 22 2 41 -5 51
-6 9 -21 37 -33 63 -19 42 -25 47 -64 53 -53 8 -100 51 -109 98 -5 27 -16 38
-63 62 -30 17 -65 42 -76 58 -26 35 -26 89 0 124 25 34 101 78 170 98 51 15
51 16 63 71 18 77 54 116 117 125 77 12 344 3 377 -12z" />
		<path d="M1150 4250 l0 -60 55 0 c47 0 57 3 71 25 32 49 -12 95 -92 95 l-34 0
0 -60z" />
		<path d="M1520 4250 l0 -60 55 0 c47 0 57 3 71 25 32 49 -12 95 -92 95 l-34 0
0 -60z" />
		<path d="M1940 4303 c-107 -39 -83 -213 29 -213 55 0 87 17 106 55 19 41 19
56 1 100 -21 50 -84 77 -136 58z" />
		<path d="M3712 4297 c-42 -24 -56 -58 -53 -125 1 -13 14 -37 30 -53 24 -24 38
-29 76 -29 38 0 52 5 76 29 63 64 23 177 -66 187 -23 2 -50 -1 -63 -9z" />
		<path d="M1831 3524 c-11 -31 -21 -58 -21 -60 0 -2 23 -4 50 -4 28 0 50 2 50
5 0 9 -49 115 -53 115 -2 0 -14 -25 -26 -56z" />
		<path d="M3419 3524 l-27 -64 53 0 54 0 -26 63 c-14 34 -26 63 -26 64 -1 0
-14 -28 -28 -63z" />
		<path d="M2353 2878 c-6 -7 -13 -24 -16 -38 l-6 -25 169 0 c94 0 170 3 170 6
0 3 -5 20 -11 38 l-11 31 -143 0 c-102 0 -145 -4 -152 -12z" />
		<path d="M2295 2716 c-122 -24 -215 -68 -215 -102 0 -8 18 -26 41 -41 36 -23
43 -25 62 -14 11 8 63 17 113 21 93 7 103 11 156 59 42 37 67 35 115 -12 41
-39 44 -40 137 -48 52 -4 105 -13 116 -19 18 -10 28 -7 61 14 21 15 39 33 39
41 0 23 -68 62 -150 85 -96 28 -366 37 -475 16z" />
		<path d="M2448 2517 l-48 -21 0 -92 c0 -77 3 -95 21 -118 18 -23 28 -26 80
-26 89 0 99 14 99 139 l0 98 -47 19 c-27 11 -50 20 -53 20 -3 1 -26 -7 -52
-19z" />
		<path d="M2245 2471 c-7 -24 4 -51 21 -51 9 0 14 12 14 35 0 38 -24 50 -35 16z" />
		<path d="M2720 2455 c0 -29 3 -36 18 -33 11 2 17 13 17 33 0 20 -6 31 -17 33
-15 3 -18 -4 -18 -33z" />
		<path d="M2448 2140 c-4 -23 2 -36 28 -61 l32 -31 25 34 c18 24 24 41 20 61
-5 25 -9 27 -53 27 -45 0 -48 -2 -52 -30z" />
		<path d="M2299 2036 c-40 -14 -99 -53 -99 -65 0 -33 25 -72 48 -76 15 -3 39
-12 53 -19 22 -11 50 -11 172 2 145 15 146 15 158 44 10 24 16 28 43 25 29 -4
76 -23 76 -32 0 -2 -5 -15 -12 -29 -10 -23 -7 -32 26 -81 20 -30 38 -55 41
-55 13 0 35 64 35 101 0 87 -68 171 -152 188 -30 7 -39 2 -100 -53 -37 -33
-76 -60 -87 -61 -12 -1 -44 23 -83 62 -34 35 -67 63 -73 63 -5 -1 -26 -7 -46
-14z" />
		<path d="M2445 1792 c-82 -8 -152 -17 -153 -18 -2 -1 1 -19 8 -38 l12 -36 194
0 194 0 -36 55 c-22 32 -44 54 -53 53 -9 0 -83 -8 -166 -16z" />
		<path d="M2161 1750 c-1 -18 16 -46 23 -40 2 3 -2 16 -9 30 -8 15 -14 19 -14
10z" />
		<path d="M2363 1598 c3 -7 20 -47 39 -88 l33 -75 5 50 c6 55 19 63 86 50 l34
-6 0 -114 0 -115 40 0 40 0 0 155 0 155 -141 0 c-109 0 -140 -3 -136 -12z" />
		<path d="M3588 1513 c-9 -10 -28 -42 -43 -72 -34 -68 -107 -142 -176 -176 -89
-46 -172 -54 -516 -55 -172 0 -313 -2 -313 -5 0 -2 8 -20 17 -40 14 -29 22
-35 47 -35 76 0 151 -42 181 -101 8 -15 33 -79 55 -141 40 -113 64 -148 102
-148 10 0 52 31 92 69 88 84 130 99 216 81 l55 -11 70 74 c113 118 172 252
184 412 l6 90 35 5 c31 4 35 8 35 35 0 35 -24 44 -47 18z" />
		<path d="M2542 1026 c-42 -36 -57 -85 -41 -133 17 -55 17 -55 59 -27 28 19 53
26 94 27 63 2 67 8 37 72 -37 80 -96 104 -149 61z" />
	</g>
</svg>
