<?xml version="1.0" standalone="no"?>
<!DOCTYPE svg PUBLIC "-//W3C//DTD SVG 20010904//EN" "http://www.w3.org/TR/2001/REC-SVG-20010904/DTD/svg10.dtd">
<svg version="1.0" xmlns="http://www.w3.org/2000/svg" width="500.000000pt" height="500.000000pt" viewBox="0 0 500.000000 500.000000" preserveAspectRatio="xMidYMid meet">
	<g transform="translate(0.000000,500.000000) scale(0.100000,-0.100000)" fill="#32325b" stroke="none">
		<path d="M0 2500 l0 -2500 2500 0 2500 0 0 2500 0 2500 -2500 0 -2500 0 0
-2500z m977 1857 c48 -25 66 -53 71 -111 4 -50 2 -56 -32 -93 l-36 -40 40 -57
39 -56 -48 0 c-47 0 -50 2 -82 50 -31 44 -38 50 -71 50 l-38 0 0 -50 0 -50
-50 0 -50 0 0 183 c0 101 3 187 8 192 12 13 217 -2 249 -18z m421 -19 l3 -38
-101 0 -101 0 3 -37 3 -38 88 -3 88 -3 -3 -32 -3 -32 -87 -3 -88 -3 0 -39 0
-40 105 0 105 0 0 -35 0 -35 -150 0 -150 0 0 183 c0 101 3 187 7 191 4 3 68 5
142 4 l136 -3 3 -37z m331 17 c66 -34 90 -119 51 -182 -30 -50 -63 -66 -146
-71 l-74 -5 0 -48 0 -49 -45 0 -45 0 0 183 c0 101 3 187 8 192 13 14 217 -2
251 -20z m417 0 c63 -32 96 -80 102 -150 6 -70 -11 -116 -58 -159 -120 -108
-321 -44 -346 109 -25 162 148 277 302 200z m386 15 c47 -13 53 -24 38 -61 -7
-16 -13 -29 -14 -29 0 0 -19 7 -41 15 -54 19 -88 18 -115 -3 -35 -28 -17 -47
71 -72 116 -33 153 -85 114 -160 -31 -60 -131 -84 -228 -56 -31 9 -59 21 -62
27 -6 8 12 69 20 69 1 0 19 -7 40 -15 49 -21 134 -16 149 8 15 25 -10 42 -82
58 -110 25 -152 82 -116 156 32 65 125 91 226 63z m216 -182 l2 -188 -50 0
-50 0 0 183 c0 101 3 187 7 191 4 4 25 6 48 4 l40 -3 3 -187z m370 150 l3 -38
-60 0 -61 0 0 -150 0 -150 -45 0 -45 0 0 150 0 150 -60 0 -60 0 0 40 0 40 163
-2 162 -3 3 -37z m340 9 c54 -35 86 -96 85 -162 -1 -169 -210 -256 -339 -143
-107 94 -88 253 38 317 62 32 159 26 216 -12z m405 8 c42 -20 63 -48 72 -97 8
-44 -14 -100 -49 -123 l-26 -17 33 -47 c54 -73 54 -71 0 -71 -47 0 -49 2 -81
50 -30 46 -35 50 -72 50 l-40 0 0 -50 0 -50 -45 0 -45 0 0 183 c0 101 3 187 8
191 13 15 207 0 245 -19z m224 -55 c26 -44 51 -80 54 -80 4 0 28 36 54 80 46
78 48 80 86 80 21 0 39 -4 39 -10 0 -5 -31 -61 -70 -125 -67 -112 -70 -118
-70 -180 l0 -65 -45 0 -45 0 0 70 c0 68 -1 71 -69 184 -38 63 -67 117 -64 120
4 3 23 6 44 6 37 0 39 -3 86 -80z m-2167 -798 c5 -126 6 -135 29 -153 31 -26
83 -25 107 2 16 18 20 42 24 153 l5 131 40 0 40 0 0 -142 c0 -155 -5 -169 -69
-217 -39 -30 -153 -30 -192 0 -62 46 -69 64 -72 205 -2 72 -1 137 2 145 4 11
17 14 43 12 l38 -3 5 -133z m618 96 l3 -38 -60 0 -61 0 0 -150 0 -150 -45 0
-45 0 0 150 0 150 -60 0 -60 0 0 33 c0 19 3 37 7 41 4 3 77 5 162 4 l156 -3 3
-37z m132 -148 l0 -190 -45 0 -45 0 0 183 c0 101 3 187 7 190 3 4 24 7 45 7
l38 0 0 -190z m178 33 l3 -153 89 0 90 0 0 -35 0 -35 -135 0 -135 0 0 191 0
190 43 -3 42 -3 3 -152z m320 -35 l2 -188 -45 0 -45 0 0 191 0 190 43 -3 42
-3 3 -187z m-528 -560 c25 -15 266 -249 537 -520 536 -537 533 -533 533 -643
0 -110 2 -106 -533 -643 -543 -544 -534 -536 -667 -548 -144 -12 -115 -35
-696 548 -567 569 -552 550 -541 666 2 33 13 74 22 93 17 33 962 990 1019
1031 52 38 96 48 191 45 77 -2 98 -7 135 -29z" />
		<path d="M820 4235 c0 -64 0 -65 28 -65 38 0 94 17 104 32 4 7 8 25 8 40 0 37
-34 58 -92 58 l-48 0 0 -65z" />
		<path d="M1560 4240 l0 -60 59 0 c51 0 62 3 75 22 38 55 3 98 -79 98 l-55 0 0
-60z" />
		<path d="M1977 4280 c-60 -48 -57 -152 6 -190 51 -32 103 -26 143 14 27 27 34
42 34 75 0 53 -17 89 -51 107 -41 20 -102 18 -132 -6z" />
		<path d="M3259 4271 c-49 -50 -38 -150 21 -184 55 -33 135 -12 159 40 6 13 11
44 11 69 0 37 -6 51 -29 75 -25 25 -37 29 -81 29 -44 0 -56 -4 -81 -29z" />
		<path d="M3700 4234 l0 -67 58 7 c66 8 85 23 85 67 0 43 -25 59 -90 59 l-53 0
0 -66z" />
		<path d="M2391 2655 l-86 -84 43 -44 43 -44 94 -1 c61 -1 107 -7 134 -18 51
-20 127 -103 141 -152 13 -48 13 -123 0 -158 -10 -26 -7 -32 64 -102 l74 -75
74 2 c102 3 159 -13 213 -61 53 -47 80 -95 90 -160 14 -95 -47 -213 -131 -253
-59 -28 -173 -37 -241 -19 -72 19 -117 54 -157 124 -25 45 -30 65 -30 119 0
36 5 75 12 87 10 18 4 28 -54 85 l-64 63 0 -252 0 -251 29 -15 c42 -22 109
-103 121 -145 37 -132 -26 -266 -147 -311 -63 -23 -178 -26 -236 -6 -123 44
-193 182 -157 311 15 53 84 136 130 155 l30 12 0 262 0 262 -52 34 c-69 46
-108 109 -115 188 -3 35 0 74 7 97 12 37 12 38 -27 76 l-38 39 -328 -328
c-319 -319 -327 -329 -327 -367 0 -39 9 -49 488 -527 268 -269 494 -488 502
-488 15 0 964 941 982 975 32 57 38 49 -479 567 -268 268 -494 488 -502 488
-8 0 -53 -38 -100 -85z" />
		<path d="M2461 2284 c-12 -15 -21 -39 -21 -53 0 -34 26 -71 49 -71 50 0 70 89
28 128 -29 28 -31 28 -56 -4z" />
		<path d="M2960 1773 c-16 -20 -20 -36 -16 -57 7 -33 33 -66 52 -66 18 0 54 49
54 75 0 26 -36 75 -55 75 -7 0 -23 -12 -35 -27z" />
		<path d="M2461 1274 c-12 -15 -21 -39 -21 -53 0 -34 26 -71 49 -71 50 0 70 89
28 128 -29 28 -31 28 -56 -4z" />
	</g>
</svg>
