<?xml version="1.0" standalone="no"?>
<!DOCTYPE svg PUBLIC "-//W3C//DTD SVG 20010904//EN" "http://www.w3.org/TR/2001/REC-SVG-20010904/DTD/svg10.dtd">
<svg version="1.0" xmlns="http://www.w3.org/2000/svg" width="500.000000pt" height="500.000000pt" viewBox="0 0 500.000000 500.000000" preserveAspectRatio="xMidYMid meet">
	<g transform="translate(0.000000,500.000000) scale(0.100000,-0.100000)" fill="#32325b" stroke="none">
		<path d="M0 2500 l0 -2500 2500 0 2500 0 0 2500 0 2500 -2500 0 -2500 0 0
-2500z m846 1858 c46 -25 60 -67 39 -112 -10 -20 -22 -36 -27 -36 -5 0 4 -12
21 -26 24 -20 31 -34 31 -61 0 -82 -41 -103 -205 -103 l-115 0 0 181 0 181
113 -4 c79 -3 121 -9 143 -20z m401 -158 l81 -180 -44 0 c-41 0 -46 3 -61 35
l-17 35 -82 0 -83 0 -12 -35 c-12 -33 -16 -35 -56 -35 -24 0 -43 2 -43 5 0 6
127 289 146 328 12 22 21 27 52 27 l38 0 81 -180z m360 169 c15 -6 38 -20 51
-32 l23 -22 -26 -21 -27 -21 -37 20 c-91 50 -186 -27 -159 -130 18 -67 114
-98 170 -53 l25 19 27 -28 27 -28 -27 -22 c-86 -68 -227 -44 -286 48 -26 41
-29 53 -26 107 4 72 36 122 96 154 41 21 124 26 169 9z m320 -1 c10 -13 153
-334 153 -343 0 -3 -20 -5 -44 -5 -42 0 -45 2 -56 35 l-12 35 -84 0 -84 0 -14
-35 c-14 -32 -19 -35 -55 -35 -23 0 -41 3 -41 8 0 4 34 85 77 180 l76 172 37
0 c21 0 42 -6 47 -12z m439 -13 c42 -24 64 -64 64 -115 0 -35 -6 -48 -35 -77
l-34 -34 34 -48 c19 -27 35 -51 35 -55 0 -3 -19 -6 -42 -6 -40 0 -45 3 -77 50
-30 43 -39 50 -68 50 l-33 0 0 -50 0 -50 -45 0 -45 0 0 181 0 182 108 -5 c80
-3 116 -9 138 -23z m390 6 c128 -58 140 -246 21 -316 -90 -52 -183 -41 -253
29 -118 117 -31 306 141 306 28 0 69 -9 91 -19z m582 -18 l3 -33 -60 0 -61 0
0 -145 0 -145 -40 0 -39 0 -3 143 -3 142 -57 3 c-56 3 -58 4 -58 31 0 15 3 31
7 35 4 3 75 5 157 4 l151 -3 3 -32z m310 0 l3 -33 -95 0 -96 0 0 -40 0 -40 85
0 85 0 0 -30 0 -30 -85 0 -85 0 0 -40 0 -40 95 0 95 0 0 -35 0 -35 -135 0
-135 0 0 180 0 181 133 -3 132 -3 3 -32z m332 17 c53 -27 57 -38 27 -68 -26
-26 -26 -26 -48 -6 -32 29 -110 26 -143 -5 -46 -43 -47 -121 -1 -167 29 -29
107 -34 143 -8 21 14 25 14 48 -1 31 -20 27 -33 -15 -62 -138 -94 -334 38
-292 196 6 24 20 56 31 71 47 66 171 90 250 50z m190 -50 l0 -70 80 0 80 0 0
71 0 70 43 -3 42 -3 3 -177 2 -178 -45 0 -45 0 0 70 0 70 -80 0 -80 0 0 -70 0
-70 -40 0 -40 0 0 180 0 180 40 0 40 0 0 -70z m-1977 -643 c18 -8 38 -21 46
-31 12 -14 11 -20 -9 -41 l-22 -24 -40 21 c-82 43 -168 -7 -168 -98 0 -37 5
-51 30 -75 26 -27 35 -30 82 -27 l53 3 3 53 3 52 40 0 39 0 0 -73 0 -73 -34
-16 c-176 -84 -361 62 -291 229 9 21 23 46 33 57 45 50 165 72 235 43z m218
-70 l46 -78 48 80 c46 79 48 81 86 81 21 0 39 -3 39 -6 0 -3 -29 -55 -65 -114
-63 -104 -65 -110 -65 -174 l0 -66 -45 0 -45 0 0 64 c0 62 -3 70 -65 173 -36
59 -65 112 -65 116 0 5 19 7 42 5 41 -3 43 -5 89 -81z m390 -30 l67 -109 65
109 c61 104 65 108 98 108 l34 0 3 -177 2 -178 -39 0 -40 0 -3 103 -3 102 -48
-82 c-63 -110 -76 -110 -140 -6 l-47 78 0 -98 0 -97 -40 0 -40 0 0 181 0 180
32 -3 c29 -3 39 -13 99 -111z m-343 -533 c264 -88 631 -336 784 -527 127 -160
258 -420 370 -732 21 -60 45 -123 53 -140 7 -16 30 -88 50 -159 43 -148 43
-199 0 -271 -56 -97 -195 -223 -390 -354 -193 -129 -422 -231 -612 -271 -118
-25 -360 -37 -453 -22 -58 9 -76 7 -155 -15 -125 -34 -325 -43 -410 -18 -96
27 -156 63 -231 139 -118 119 -168 248 -168 443 l-1 111 54 107 c86 169 202
273 360 319 100 29 351 16 454 -23 25 -10 33 -7 65 19 85 68 215 97 384 86
l96 -7 6 93 c15 255 17 379 4 420 -7 24 -31 61 -53 85 l-41 43 -81 -7 c-50 -3
-99 -1 -127 6 -43 11 -50 9 -90 -14 -88 -52 -211 -27 -300 60 -72 71 -99 141
-94 241 7 140 120 305 263 381 78 42 153 44 263 7z" />
		<path d="M670 4270 l0 -40 51 0 c58 0 89 13 89 38 0 31 -22 42 -82 42 l-58 0
0 -40z" />
		<path d="M670 4125 l0 -45 49 0 c92 0 137 35 92 72 -17 13 -40 18 -82 18 l-59
0 0 -45z" />
		<path d="M1099 4224 l-27 -64 53 0 54 0 -26 63 c-14 34 -26 63 -26 64 -1 0
-14 -28 -28 -63z" />
		<path d="M1866 4245 c-40 -92 -41 -85 14 -85 58 0 59 3 26 75 l-23 50 -17 -40z" />
		<path d="M2210 4251 l0 -61 53 0 c61 0 77 11 77 56 0 41 -16 53 -79 61 l-51 6
0 -62z" />
		<path d="M2624 4300 c-67 -27 -87 -129 -35 -181 24 -24 38 -29 76 -29 88 0
134 85 92 168 -21 43 -83 62 -133 42z" />
		<path d="M2266 2943 c-60 -39 -129 -116 -162 -180 -25 -49 -29 -70 -29 -135 0
-69 3 -80 30 -119 17 -23 47 -56 68 -72 l37 -31 47 24 c39 19 58 22 122 19 42
-1 124 -2 184 0 100 2 111 1 151 -23 76 -44 139 -133 152 -213 8 -52 -14 -575
-25 -586 -15 -15 -92 -15 -151 0 -30 7 -91 13 -137 13 -182 0 -289 -86 -338
-271 -8 -30 -15 -72 -15 -94 0 -55 -11 -69 -47 -62 -16 3 -35 2 -43 -3 -8 -5
-22 -5 -32 1 -34 18 -18 164 31 275 l19 42 -75 22 c-195 58 -326 28 -459 -104
-52 -52 -82 -93 -112 -155 -41 -81 -42 -86 -42 -185 0 -259 116 -437 327 -501
70 -21 114 -19 253 16 100 24 138 29 190 25 219 -19 294 -18 400 4 141 29 232
60 375 130 290 141 583 380 616 502 13 50 6 84 -71 318 -102 312 -252 620
-398 820 -157 214 -437 419 -718 525 -82 31 -99 31 -148 -2z m699 -1863 c4 -7
13 -6 27 1 17 9 24 7 40 -9 19 -18 19 -21 4 -49 -25 -50 -114 -140 -179 -183
-144 -94 -352 -115 -555 -55 -59 18 -79 42 -58 71 17 23 69 21 189 -8 76 -19
96 -20 148 -10 123 23 222 85 304 193 44 57 67 71 80 49z" />
	</g>
</svg>
