<?xml version="1.0" standalone="no"?>
<!DOCTYPE svg PUBLIC "-//W3C//DTD SVG 20010904//EN" "http://www.w3.org/TR/2001/REC-SVG-20010904/DTD/svg10.dtd">
<svg version="1.0" xmlns="http://www.w3.org/2000/svg" width="500.000000pt" height="500.000000pt" viewBox="0 0 500.000000 500.000000" preserveAspectRatio="xMidYMid meet">
	<g transform="translate(0.000000,500.000000) scale(0.100000,-0.100000)" fill="#32325b" stroke="none">
		<path d="M0 2500 l0 -2500 2500 0 2500 0 0 2500 0 2500 -2500 0 -2500 0 0
-2500z m2343 1859 c21 -5 52 -23 70 -38 27 -25 30 -31 17 -45 -27 -34 -47 -37
-82 -16 -74 45 -171 12 -196 -68 -39 -122 84 -215 199 -150 l40 22 27 -28 27
-27 -32 -29 c-83 -75 -231 -63 -311 24 -82 89 -82 203 0 292 59 64 151 88 241
63z m844 -18 c158 -80 157 -300 0 -383 -55 -29 -166 -31 -217 -4 -81 43 -123
109 -123 196 0 102 58 177 163 211 40 13 133 3 177 -20z m-2267 -73 l1 -93 88
93 89 92 58 0 58 0 -65 -67 c-35 -38 -75 -80 -88 -95 l-24 -27 92 -115 91
-116 -59 0 -59 0 -58 72 c-33 39 -62 76 -66 82 -4 7 -17 1 -32 -14 -22 -20
-26 -32 -26 -82 l0 -58 -50 0 -50 0 0 210 0 210 50 0 50 0 0 -92z m660 52 l0
-40 -110 0 -110 0 0 -45 0 -45 101 0 100 0 -3 -37 -3 -38 -97 -3 -98 -3 0 -44
0 -45 115 0 115 0 0 -40 0 -40 -165 0 -165 0 0 210 0 210 160 0 160 0 0 -40z
m188 -53 c61 -100 49 -102 122 21 l42 72 50 0 c50 0 50 0 36 -22 -8 -13 -44
-73 -81 -134 -67 -112 -67 -112 -67 -188 l0 -76 -50 0 -50 0 0 73 0 72 -80
133 c-44 73 -80 136 -80 138 0 3 23 4 52 2 l51 -3 55 -88z m842 -77 l0 -170
105 0 105 0 0 -40 0 -40 -155 0 -155 0 0 210 0 210 50 0 50 0 0 -170z m1089
-35 c50 -113 91 -207 91 -210 0 -3 -23 -5 -50 -5 -51 0 -51 0 -70 45 l-20 46
-96 -3 -97 -3 -16 -42 -15 -43 -53 0 -52 0 18 43 c33 77 153 342 162 360 7 12
22 17 58 17 l49 0 91 -205z m241 113 l1 -93 88 93 89 92 58 0 58 0 -65 -67
c-35 -38 -75 -80 -88 -95 l-24 -27 92 -115 91 -116 -59 0 -59 0 -58 72 c-33
39 -62 76 -66 82 -4 7 -17 1 -32 -14 -22 -20 -26 -32 -26 -82 l0 -58 -50 0
-50 0 0 210 0 210 50 0 50 0 0 -92z m-2315 -773 c25 -14 58 -45 73 -67 23 -36
27 -51 27 -118 0 -67 -4 -82 -27 -118 -95 -143 -327 -131 -403 21 -60 122 -2
261 129 303 61 20 147 11 201 -21z m1327 12 l38 -16 -15 -33 c-15 -36 -18 -36
-100 -17 -37 8 -57 8 -78 0 -64 -25 -38 -69 55 -91 69 -17 125 -45 139 -71 30
-56 2 -135 -58 -165 -55 -27 -172 -26 -236 3 l-47 22 17 36 c18 38 17 38 88
11 47 -18 84 -20 120 -6 21 8 26 16 23 37 -3 28 -18 35 -127 63 -59 15 -111
67 -111 109 0 35 20 80 44 100 50 42 171 50 248 18z m884 8 c120 -36 187 -177
135 -290 -72 -159 -305 -180 -405 -37 -61 87 -42 226 40 288 69 53 142 65 230
39z m-3125 -135 c24 -77 46 -136 50 -132 4 4 26 67 50 140 l43 132 48 0 47 0
48 -146 48 -146 46 143 46 144 46 3 c34 2 47 -1 47 -10 0 -7 -30 -102 -66
-210 l-66 -198 -53 0 -54 0 -43 130 c-23 72 -45 130 -48 130 -3 0 -25 -59 -49
-130 l-43 -131 -56 3 -56 3 -67 208 -66 207 52 0 52 0 44 -140z m1362 126
c101 -42 126 -166 51 -242 l-36 -35 39 -57 c21 -31 40 -60 41 -64 2 -5 -20 -8
-50 -8 -52 0 -53 1 -82 46 -41 65 -53 74 -97 74 l-39 0 0 -60 0 -60 -50 0 -50
0 0 210 0 210 120 0 c79 0 132 -5 153 -14z m267 -83 l1 -98 92 98 92 98 55 -3
55 -3 -84 -87 c-48 -51 -81 -93 -78 -101 3 -7 41 -59 86 -115 45 -56 81 -104
81 -107 0 -3 -24 -5 -54 -5 l-54 0 -67 81 -68 80 -28 -27 c-25 -24 -29 -35
-29 -81 l0 -53 -50 0 -50 0 0 210 0 210 50 0 50 0 0 -97z m830 17 l0 -80 95 0
95 0 0 80 0 80 50 0 50 0 0 -210 0 -210 -50 0 -50 0 0 85 0 85 -95 0 -95 0 0
-85 0 -85 -50 0 -50 0 0 210 0 210 50 0 50 0 0 -80z m1186 54 c51 -37 69 -71
69 -127 0 -97 -59 -144 -191 -154 l-74 -6 0 -53 0 -54 -50 0 -50 0 0 211 0
211 134 -4 c117 -3 138 -6 162 -24z m-1118 -656 c17 -17 17 -2299 0 -2316 -16
-16 -1463 -18 -1473 -2 -8 13 -7 2309 1 2322 9 14 1458 10 1472 -4z" />
		<path d="M3008 4264 c-78 -42 -77 -188 2 -229 62 -32 146 -11 175 45 33 64 11
156 -45 185 -37 19 -97 19 -132 -1z" />
		<path d="M3533 4202 c-12 -31 -25 -65 -29 -74 -5 -16 1 -18 54 -18 l61 0 -30
72 c-16 39 -31 73 -32 74 -1 2 -12 -23 -24 -54z" />
		<path d="M1444 3430 c-53 -21 -85 -101 -65 -163 18 -54 53 -80 115 -85 50 -4
56 -2 92 31 37 34 39 38 39 97 0 58 -2 63 -37 96 -31 28 -45 34 -80 33 -24 0
-53 -4 -64 -9z" />
		<path d="M3688 3423 c-79 -50 -75 -185 6 -228 44 -24 118 -16 152 16 54 51 54
147 -1 199 -33 31 -118 38 -157 13z" />
		<path d="M1900 3371 l0 -71 64 0 c58 0 67 3 86 27 15 19 19 35 15 53 -10 42
-30 54 -100 58 l-65 4 0 -71z" />
		<path d="M4160 3371 l0 -71 64 0 c58 0 67 3 86 27 15 19 19 35 15 53 -10 42
-30 54 -100 58 l-65 4 0 -71z" />
		<path d="M1870 1680 l0 -1100 628 0 629 0 6 128 c4 70 7 565 7 1100 l0 972
-635 0 -635 0 0 -1100z m719 964 c17 -4 51 -24 76 -46 52 -46 75 -107 75 -199
0 -51 3 -58 23 -64 12 -4 32 -17 45 -28 21 -20 22 -26 22 -216 -1 -211 -3
-221 -54 -241 -40 -15 -488 -13 -521 2 -48 22 -55 51 -55 238 0 195 7 220 65
241 l35 13 0 71 c1 107 45 185 125 221 32 14 113 18 164 8z m389 -855 c40 -14
72 -65 72 -114 0 -29 -7 -44 -34 -71 -31 -31 -39 -34 -92 -34 -78 0 -119 24
-135 80 -11 35 -10 46 4 75 31 64 108 91 185 64z" />
		<path d="M2460 2619 c-33 -13 -78 -57 -96 -92 -8 -15 -17 -63 -21 -107 l-6
-80 27 0 c26 0 26 1 26 68 0 108 38 152 131 152 88 0 129 -51 129 -160 0 -53
2 -60 20 -60 18 0 20 7 20 78 0 90 -17 130 -73 176 -40 32 -113 44 -157 25z" />
		<path d="M2477 2529 c-29 -17 -47 -65 -47 -129 l0 -60 90 0 90 0 0 44 c0 68
-10 104 -38 131 -26 26 -64 32 -95 14z" />
		<path d="M2713 2415 c0 -44 2 -61 4 -37 2 23 2 59 0 80 -2 20 -4 1 -4 -43z" />
		<path d="M2323 2410 c0 -41 2 -58 4 -37 2 20 2 54 0 75 -2 20 -4 3 -4 -38z" />
		<path d="M2411 2464 c0 -11 3 -14 6 -6 3 7 2 16 -1 19 -3 4 -6 -2 -5 -13z" />
		<path d="M2272 2300 c-21 -20 -22 -28 -22 -210 0 -251 -24 -230 266 -230 209
0 223 1 248 21 l26 20 0 189 0 189 -26 20 c-25 20 -39 21 -248 21 -210 0 -223
-1 -244 -20z m302 -131 c19 -15 26 -30 26 -54 0 -19 -5 -37 -10 -40 -7 -4 -8
-24 -5 -49 6 -39 5 -44 -17 -49 -41 -12 -105 -8 -117 7 -9 10 -9 20 0 40 10
20 9 32 -4 57 -38 79 56 144 127 88z" />
		<path d="M2497 2152 c-21 -23 -21 -46 -1 -77 12 -18 13 -28 5 -44 -16 -29 -14
-31 18 -31 29 0 30 1 19 30 -8 25 -7 34 7 50 21 23 16 59 -11 76 -18 13 -23
12 -37 -4z" />
		<path d="M2224 2090 c0 -102 2 -143 3 -92 2 50 2 134 0 185 -1 50 -3 9 -3 -93z" />
		<path d="M2814 2090 c0 -102 2 -143 3 -92 2 50 2 134 0 185 -1 50 -3 9 -3 -93z" />
		<path d="M2902 1704 c-13 -24 -3 -56 17 -52 21 4 26 41 7 57 -12 10 -16 9 -24
-5z" />
	</g>
</svg>
