<svg height="500pt" preserveAspectRatio="xMidYMid meet" viewBox="0 0 500 500" width="500pt" xmlns="http://www.w3.org/2000/svg">
	<g transform="matrix(.1 0 0 -.1 0 500)" fill="#32325b" stroke="none">
		<path d="m0 2500v-2500h2500 2500v2500 2500h-2500-2500zm965 1866c33-14 34-16 23-46-9-26-14-30-32-24-48 16-122 16-135 0-23-27-4-44 71-66 110-33 143-75 114-144-27-64-121-90-219-62-65 19-71 26-56 60 14 30 12 30 64 11 52-18 96-19 121-1 31 24 6 47-77 73-89 27-112 48-112 103 0 44 13 64 58 92 37 22 131 24 180 4zm351-11c89-52 85-173-6-220-16-8-56-15-90-15h-60v-50-50h-45-45v181 182l108-5c80-3 116-9 138-23zm370 0c42-24 64-64 64-115 0-35-6-48-35-77l-34-34 34-48c19-27 35-51 35-55 0-3-19-6-42-6-40 0-45 3-77 50-30 43-39 50-68 50h-33v-50-50h-45-45v181 182l108-5c80-3 116-9 138-23zm212-157 2-178h-45-45v173c0 96 3 177 7 181s23 6 43 4l35-3zm233 77 84-104 5 102 5 102h40 40l3-177 2-178h-38c-37 0-42 5-123 105l-84 104-3-104-3-105h-39-40v180 180h33c30 0 41-10 118-105zm525 86c57-26 63-39 30-67l-26-23-33 19c-118 72-241-86-135-175 26-22 39-25 82-23l51 3 3 53 3 52h40 40l-3-72-3-73-40-20c-53-26-147-27-198-1-57 28-90 77-95 141-6 68 1 96 34 135 58 68 164 90 250 51zm349 9c55-13 89-53 81-98-3-19-12-43-21-52-15-17-15-19 3-29 28-15 45-71 33-105-20-52-62-66-198-66h-123v180 180h93c50 0 110-5 132-10zm418-6c74-38 107-88 107-164 0-98-53-161-151-182-73-14-131 2-180 51-90 89-68 235 43 290 52 26 135 28 181 5zm433-3c128-58 140-246 21-316-90-52-183-41-253 29-118 117-31 306 141 306 28 0 69-9 91-19zm434-16v-35h-55-55v-145-145h-45-45v145 145h-55-55v35 35h155 155zm-3450-684c0-22-22-56-90-137l-91-109 93-5 93-5 3-32 3-33h-155-156v26c0 17 29 60 94 137l94 112-89 3-89 3v34 35h145 145zm320-6v-35h-90-90v-35-35h80 80v-35-35h-80-80v-35-34l93-3 92-3 3-32 3-33h-140-141v168c0 93 3 172 7 175 3 4 64 7 135 7h128zm307 12c78-42 84-152 11-205-18-13-17-16 17-63 19-27 35-51 35-54s-19-5-42-5c-40 0-45 4-73 45-27 40-34 45-67 45h-38v-45-45h-40-40v176 176l103-4c71-3 112-9 134-21zm382 3c129-65 132-240 6-312-30-17-56-23-102-23-52 0-67 4-104 30-23 17-50 46-60 65-23 41-25 120-5 158 18 35 64 78 96 91 43 17 127 13 169-9zm561-15v-35h-55-55v-140-140h-40-40v140 140h-55-55v35 35h150 150zm299 15c129-65 132-240 6-312-30-17-56-23-102-23-52 0-67 4-104 30-23 17-50 46-60 65-23 41-25 120-5 158 18 35 64 78 96 91 43 17 127 13 169-9zm381-50v-70h75 74l3 68 3 67h40 40l3-172 2-173h-45-45v70 70h-75-75v-70-70h-40-40v175 175h40 40zm580 35v-35h-90-90v-35-35h80 80v-35-35h-80-80v-35-34l93-3 92-3 3-32 3-33h-140-141v168c0 93 3 172 7 175 3 4 64 7 135 7h128zm271 25c19-5 48-23 64-40 24-25 29-39 29-80 0-43-5-55-32-83l-32-33 26-35c50-67 50-69 0-69-42 0-46 3-73 45-25 40-32 45-65 45h-38v-45-45h-45-45v168c0 93 3 172 7 175 10 11 164 8 204-3zm416-9c109-50 132-195 44-282-83-83-223-73-294 23-39 53-38 151 3 208 46 65 163 89 247 51zm-1630-1031 12-55-2 82c-1 44 1 79 6 76 22-13 41-74 41-133 1-55-5-77-33-135-28-60-56-92-182-215-155-152-188-199-189-271 0-53 22-109 78-191 55-83 75-118 67-118-4 0-31 24-62 53l-57 52 33-48c18-27 31-50 28-53-2-2-46 40-98 94-136 142-171 225-132 313 29 64 62 100 205 216 199 162 242 226 242 360 1 77 2 80 16 55 7-15 20-52 27-82zm167-312c-5-7-2-9 7-6 32 12 64 20 59 15-3-3-41-29-85-57-116-76-180-134-205-186-28-57-20-90 45-189 25-38 45-78 46-90 4-70-18-114-84-167-56-46-78-58-56-32 9 10 22 30 29 43 11 21 6 19-32-12-53-43-68-47-39-11 26 33 37 89 23 119-6 13-31 51-56 84-135 184-40 351 267 471 82 33 91 35 81 18zm292-664c40-19 69-56 78-100 15-66-53-162-149-211-67-35-155-64-155-52 0 5-12 7-27 3-34-8-27-1 49 50 117 78 167 164 135 231-22 46-55 65-116 68-28 1-51 3-51 5 0 11 57 21 123 21 53 1 90-4 113-15zm-876 2c0-2-33-14-72-26-132-40-164-71-90-87 62-13 451-6 584 10 68 9 146 18 173 20l50 5-46-23c-87-45-323-75-578-75-248 0-421 27-421 66 0 33 139 88 261 102 81 10 139 13 139 8zm-156-248c-5-8-2-9 12-4 10 5 28 11 39 14 18 5 19 4 6-12-27-32 5-47 124-56 97-8 314 2 335 15 5 3 36 7 70 10 51 4 67 1 90-15 16-11 34-20 41-20 8 0 9-3 3-9-5-6-54-19-109-31-126-27-436-39-541-21-101 18-154 44-154 75 0 19 9 30 38 45 43 23 56 26 46 9zm49-214c-5-15-3-15 25 0 39 20 39 20 38-6-1-20 6-23 54-31 51-8 260-3 372 8 36 3 60-1 104-22l57-26-34-14c-163-69-516-71-649-3-35 18-41 25-38 48 2 19 13 32 38 44 42 22 41 22 33 2zm-97-133c-3-4-25-11-48-15-53-9-128-41-128-56 0-17 57-37 156-54 105-19 575-22 714-6 198 23 287 50 297 91 7 24 23 15 23-13 0-17 2-18 15-8 8 7 15 21 15 32 0 17 3 18 15 8 8-7 15-17 15-23 0-46-148-104-336-132-148-22-555-31-721-16-168 16-315 38-347 53-96 43 94 145 277 147 32 1 56-3 53-8zm1093-143-12-21 37 21c39 23 45 19 20-16-34-49-167-94-348-119-86-12-194-16-376-17-255 0-375 10-461 39-42 14-39 14 61 7 58-4 215-7 350-7 204 1 269 5 388 23 150 24 260 56 314 91 41 26 41 26 27-1z" />
		<path d="m1160 4251v-61h46c63 0 84 13 84 54 0 43-16 55-79 63l-51 6z" />
		<path d="m1530 4251v-61h53c61 0 77 11 77 56 0 41-16 53-79 61l-51 6z" />
		<path d="m2860 4270v-40h51c58 0 89 13 89 38 0 31-22 42-82 42h-58z" />
		<path d="m2860 4125v-45h54c75 0 106 13 106 45s-31 45-106 45h-54z" />
		<path d="m3300 4303c-107-39-83-213 29-213 55 0 87 17 106 55 19 41 19 56 1 100-21 50-84 77-136 58z" />
		<path d="m3724 4300c-67-27-87-129-35-181 24-24 38-29 76-29 88 0 134 85 92 168-21 43-83 62-133 42z" />
		<path d="m1310 3560v-60h43c55 0 87 22 87 60s-32 60-87 60h-43z" />
		<path d="m1691 3594c-83-70-18-209 89-188 78 16 109 127 51 185-39 39-96 40-140 3z" />
		<path d="m2551 3594c-83-70-18-209 89-188 78 16 109 127 51 185-39 39-96 40-140 3z" />
		<path d="m3820 3560v-60h43c55 0 87 22 87 60s-32 60-87 60h-43z" />
		<path d="m4209 3605c-48-26-64-118-27-162 60-73 188-29 188 63 0 91-83 142-161 99z" />
	</g>
</svg>
